HIERARCHY
ROOT Hips
{
 OFFSET 0.000000 0.000000 0.000000
 CHANNELS 6 Xposition Yposition Zposition Yrotation Xrotation Zrotation
 JOINT Chest
 {
  OFFSET 0.000000 9.585900 0.002600
  CHANNELS 3 Yrotation Xrotation Zrotation
  JOINT Chest2
  {
   OFFSET 0.000000 9.601200 -0.005300
   CHANNELS 3 Yrotation Xrotation Zrotation
   JOINT Chest3
   {
    OFFSET 0.000000 9.561800 0.000000
    CHANNELS 3 Yrotation Xrotation Zrotation
    JOINT Chest4
    {
     OFFSET 0.000000 9.552100 0.000000
     CHANNELS 3 Yrotation Xrotation Zrotation
     JOINT Neck
     {
      OFFSET 0.000000 14.453000 0.000000
      CHANNELS 3 Yrotation Xrotation Zrotation
      JOINT Head
      {
       OFFSET 0.000000 8.936500 -0.011300
       CHANNELS 3 Yrotation Xrotation Zrotation
       End Site
       {
        OFFSET 0.000000 17.073600 -0.006000
       }
      }
     }
     JOINT RightCollar
     {
      OFFSET -2.921100 9.558500 0.000000
      CHANNELS 3 Yrotation Xrotation Zrotation
      JOINT RightShoulder
      {
       OFFSET -13.519700 0.000000 0.000000
       CHANNELS 3 Yrotation Xrotation Zrotation
       JOINT RightElbow
       {
        OFFSET 0.000000 -29.696600 0.000000
        CHANNELS 3 Yrotation Xrotation Zrotation
        JOINT RightWrist
        {
         OFFSET 0.000000 -24.004700 0.000000
         CHANNELS 3 Yrotation Xrotation Zrotation
         End Site
         {
          OFFSET 0.000000 -17.728500 0.000000
         }
        }
       }
      }
     }
     JOINT LeftCollar
     {
      OFFSET 2.921100 9.558500 0.000000
      CHANNELS 3 Yrotation Xrotation Zrotation
      JOINT LeftShoulder
      {
       OFFSET 13.519700 0.000000 0.000000
       CHANNELS 3 Yrotation Xrotation Zrotation
       JOINT LeftElbow
       {
        OFFSET 0.000000 -29.696600 0.000000
        CHANNELS 3 Yrotation Xrotation Zrotation
        JOINT LeftWrist
        {
         OFFSET 0.000000 -24.004700 0.000000
         CHANNELS 3 Yrotation Xrotation Zrotation
         End Site
         {
          OFFSET 0.000000 -17.728500 0.000000
         }
        }
       }
      }
     }
    }
   }
  }
 }
 JOINT RightHip
 {
  OFFSET -7.771700 -0.012900 -0.001300
  CHANNELS 3 Yrotation Xrotation Zrotation
  JOINT RightKnee
  {
   OFFSET 0.000000 -40.869800 0.001200
   CHANNELS 3 Yrotation Xrotation Zrotation
   JOINT RightAnkle
   {
    OFFSET 0.000000 -39.717900 0.002100
    CHANNELS 3 Yrotation Xrotation Zrotation
    JOINT RightToe
    {
     OFFSET 0.000000 -4.965400 11.033500
     CHANNELS 3 Yrotation Xrotation Zrotation
     End Site
     {
      OFFSET 0.000000 -1.423100 5.872300
     }
    }
   }
  }
 }
 JOINT LeftHip
 {
  OFFSET 7.771700 -0.012900 -0.001300
  CHANNELS 3 Yrotation Xrotation Zrotation
  JOINT LeftKnee
  {
   OFFSET 0.000000 -40.869800 0.001200
   CHANNELS 3 Yrotation Xrotation Zrotation
   JOINT LeftAnkle
   {
    OFFSET 0.000000 -39.717900 0.002100
    CHANNELS 3 Yrotation Xrotation Zrotation
    JOINT LeftToe
    {
     OFFSET 0.000000 -4.965400 11.033500
     CHANNELS 3 Yrotation Xrotation Zrotation
     End Site
     {
      OFFSET 0.000000 -1.423100 5.872300
     }
    }
   }
  }
 }
}
MOTION
Frames: 8
Frame Time: 0.008333
0.000000 85.388000 0.000000 0.000000 -5.767877 0.000000 0.000000 11.653817 0.000000 0.000000 -5.885947 0.000000 0.000000 -0.000000 0.000000 0.000000 -0.000000 0.000000 0.000000 12.528835 0.000000 0.000000 0.711642 0.000000 0.000000 -0.000000 0.000000 0.000000 0.000000 -90.000000 0.000000 -2.309062 0.000000 0.000000 2.309062 0.000000 0.000000 -0.000000 0.000000 0.000000 -0.000000 90.000000 0.000000 -2.309062 0.000000 0.000000 2.309062 0.000000 0.000000 8.520406 0.000000 0.000000 1.905762 0.000000 -0.000000 -4.658285 0.000000 0.000000 -0.000000 0.000000 0.000000 8.520406 0.000000 0.000000 1.905762 0.000000 -0.000000 -4.658285 0.000000 0.000000 -0.000000 0.000000
0.985350 52.323825 35.573715 170.089392 -37.777946 -2.060044 4.382219 26.498665 2.017134 0.679310 4.466301 0.446204 1.096763 7.085032 0.734566 3.751077 21.467669 2.758619 1.106664 16.468042 -0.580868 2.256281 -5.193397 -1.465288 -2.424084 -4.581856 -4.423684 4.808239 -24.878060 0.803412 -119.110838 -44.845118 149.541005 -9.717300 -0.756003 15.546875 -8.861282 -1.774974 0.876574 3.573852 -25.787727 -1.558120 109.320197 -38.708326 -151.274880 12.235730 -13.118858 -1.164662 -4.800292 -42.870893 4.792892 -159.460055 86.604075 -155.932588 -1.275110 -12.178686 -2.031429 0.137607 -0.155728 0.056072 -0.728399 -40.045099 6.809296 80.102753 82.047719 70.548334 -4.802664 -13.260783 8.148905 -0.324801 1.412279 -0.124840
0.988590 52.321694 35.576762 170.060808 -37.715390 -2.081471 4.449338 26.535783 2.058378 0.685067 4.484315 0.447655 1.105735 7.111797 0.736861 3.771971 21.498834 2.763658 1.060726 16.479356 -0.565337 2.165500 -5.173794 -1.420085 -2.457731 -4.548379 -4.422771 4.896826 -24.892420 0.956598 -119.116652 -45.182258 149.236303 -9.827778 -0.917602 15.867133 -8.898491 -1.745948 0.864361 3.486339 -25.808450 -1.701855 109.071627 -38.847898 -150.878519 12.251863 -13.093273 -1.217407 -4.830254 -42.928007 4.854530 -159.741654 86.623758 -156.191579 -1.287015 -12.169526 -2.058192 0.135449 -0.158790 0.054220 -0.722048 -40.109232 6.857190 80.025419 82.082858 70.455425 -4.751164 -13.253785 8.185076 -0.357165 1.400397 -0.138244
0.982934 52.318185 35.577615 170.085716 -37.642149 -2.081478 4.454304 26.563571 2.042446 0.691206 4.500123 0.449099 1.115340 7.135272 0.739288 3.795661 21.525421 2.769754 1.012743 16.496752 -0.545863 2.069375 -5.143035 -1.366757 -2.503470 -4.515204 -4.423454 5.003216 -24.916277 1.102193 -119.119684 -45.599526 148.854618 -9.957086 -1.129137 16.252305 -8.934431 -1.718836 0.854031 3.387154 -25.847682 -1.855729 108.856386 -39.092057 -150.405058 12.245069 -13.064579 -1.223167 -4.828076 -43.004381 4.822320 -160.447099 86.633138 -156.861923 -1.309741 -12.171375 -2.077132 0.134019 -0.163838 0.051511 -0.698784 -40.180443 6.819905 79.964343 82.090547 70.408687 -4.814608 -13.291156 8.180165 -0.304875 1.444652 -0.114834
0.985580 52.318671 35.572604 170.068554 -37.613749 -2.097647 4.521892 26.623860 2.079157 0.697416 4.513997 0.450212 1.125111 7.155696 0.741304 3.820448 21.548198 2.775154 0.965589 16.521408 -0.522641 1.973316 -5.098729 -1.306716 -2.556217 -4.479856 -4.421737 5.122505 -24.953030 1.234644 -119.097729 -46.100291 148.374079 -10.099688 -1.387944 16.706118 -8.967184 -1.693619 0.847419 3.281133 -25.904458 -2.018345 108.684023 -39.454348 -149.853477 12.205750 -13.034797 -1.174125 -4.815973 -43.028497 4.853631 -160.616192 86.639072 -156.995799 -1.315314 -12.162372 -2.094596 0.131934 -0.174649 0.052665 -0.703255 -40.209320 6.854140 79.980785 82.110938 70.402554 -4.779990 -13.270286 8.211307 -0.348886 1.412926 -0.138773
0.984353 52.316097 35.567857 170.074708 -37.566008 -2.103087 4.536153 26.619661 2.081725 0.720489 4.566393 0.446648 1.133900 7.173351 0.742282 3.842808 21.567936 2.777757 0.922527 16.551809 -0.497206 1.884113 -5.043639 -1.244042 -2.607934 -4.442144 -4.417886 5.252274 -25.007581 1.352482 -119.024236 -46.688829 147.771531 -10.243194 -1.690067 17.216123 -8.994573 -1.671489 0.845253 3.171613 -25.977426 -2.184353 108.545536 -39.934525 -149.213423 12.116413 -12.998237 -1.067071 -4.804129 -43.079982 4.854969 -160.901612 86.635270 -157.250553 -1.321524 -12.152277 -2.115273 0.130915 -0.188453 0.058322 -0.680844 -40.259483 6.838680 79.996960 82.126048 70.419182 -4.779259 -13.278166 8.228813 -0.338050 1.413585 -0.137485
0.984508 52.315001 35.558474 170.068392 -37.545224 -2.100735 4.561844 26.639626 2.086544 0.742560 4.613436 0.443333 1.141242 7.188618 0.742820 3.861271 21.585018 2.778998 0.884491 16.585245 -0.472233 1.804362 -4.982770 -1.183964 -2.655929 -4.406031 -4.416152 5.389572 -25.081924 1.456522 -118.864080 -47.360235 147.023061 -10.374007 -2.018152 17.755817 -9.016714 -1.654681 0.845388 3.053892 -26.067052 -2.347198 108.435974 -40.526919 -148.472303 11.976896 -12.942366 -0.909972 -4.795170 -43.108356 4.860558 -161.895537 86.639603 -158.225959 -1.332324 -12.122032 -2.161591 0.101364 -0.221735 0.081972 -0.637652 -40.280655 6.816386 80.134626 82.117041 70.552111 -4.772223 -13.296298 8.266558 -0.360529 1.408575 -0.152825
0.985556 52.311460 35.549702 170.086547 -37.512020 -2.114815 4.589268 26.683584 2.097238 0.745431 4.619175 0.444445 1.147950 7.202874 0.743395 3.877774 21.600932 2.780387 0.850428 16.619758 -0.448621 1.732398 -4.919765 -1.127669 -2.698634 -4.377499 -4.416257 5.531267 -25.177501 1.546998 -118.574125 -48.098236 146.109048 -10.472801 -2.336330 18.282083 -9.034141 -1.646836 0.847244 2.917582 -26.172981 -2.499950 108.331612 -41.220768 -147.616262 11.804713 -12.852349 -0.718721 -4.780356 -43.146940 4.860779 -162.942103 86.645803 -159.236950 -1.373807 -12.107644 -2.193780 0.097320 -0.239378 0.096757 -0.612392 -40.317202 6.790484 80.167943 82.114301 70.610632 -4.795929 -13.303378 8.255481 -0.340063 1.411718 -0.135197
